<svg width="136" height="137" viewBox="0 0 136 137" fill="none" xmlns="http://www.w3.org/2000/svg">
<g clip-path="url(#clip0_6062_4231)">
<path d="M19.0305 6.45892H117.267V134.478H19.0305V6.45892Z" fill="#2472B2"/>
<path d="M19.0305 6.45892H24.4219V134.478H19.0305V6.45892Z" fill="#1C5D9F"/>
<path d="M89.6465 126.869H117.267V134.479H89.6465V126.869Z" fill="#525468"/>
<path d="M19.0305 126.869H46.9948V134.479H19.0305V126.869Z" fill="#525468"/>
<path d="M19.0305 126.869H24.4219V134.479H19.0305V126.869Z" fill="#3E4151"/>
<path d="M98.2076 56.1422H38.0892C36.5017 56.1422 35.2151 57.4288 35.2151 59.0153V74.9673C35.2151 76.5549 36.5017 77.8405 38.0892 77.8405H98.2076C99.7952 77.8405 101.081 76.5549 101.081 74.9673V59.0153C101.082 57.4288 99.7952 56.1422 98.2076 56.1422Z" fill="#F3A334"/>
<path d="M40.6075 74.9673V59.0153C40.6075 57.4278 41.8941 56.1412 43.4806 56.1412H38.0892C36.5017 56.1412 35.2151 57.4278 35.2151 59.0153V74.9673C35.2151 76.5538 36.5017 77.8405 38.0892 77.8405H43.4806C41.8941 77.8405 40.6075 76.5538 40.6075 74.9673Z" fill="#E87E04"/>
<path d="M89.5331 93.2291H46.7634C45.8264 93.2291 45.0669 93.9886 45.0669 94.9266V134.479H91.2307V94.9266C91.2307 93.9886 90.4701 93.2291 89.5331 93.2291Z" fill="#B4E1F9"/>
<path d="M68.1483 93.2291H46.7634C45.8264 93.2291 45.0669 93.9886 45.0669 94.9266V134.479H68.1483V93.2291Z" fill="#72BDF6"/>
<path d="M52.1558 93.2291H46.7634C45.8264 93.2291 45.0669 93.9886 45.0669 94.9266V134.479H50.4583V94.9266C50.4583 93.9886 51.2178 93.2291 52.1558 93.2291Z" fill="#4B98D4"/>
<path d="M74.5692 118.86C73.4527 118.86 72.5469 117.954 72.5469 116.838V109.922C72.5469 108.805 73.4527 107.9 74.5692 107.9C75.6856 107.9 76.5904 108.805 76.5904 109.922V116.838C76.5904 117.954 75.6856 118.86 74.5692 118.86Z" fill="#E4E3E1"/>
<path d="M61.7278 118.86C60.6113 118.86 59.7065 117.954 59.7065 116.838V109.922C59.7065 108.805 60.6113 107.9 61.7278 107.9C62.8453 107.9 63.7501 108.805 63.7501 109.922V116.838C63.7501 117.954 62.8453 118.86 61.7278 118.86Z" fill="#E4E3E1"/>
<path d="M40.7102 15.6064H54.4293V31.0064H40.7102V15.6064Z" fill="#B4E1F9"/>
<path d="M54.4292 15.6064H68.1483V31.0064H54.4292V15.6064Z" fill="#72BDF6"/>
<path d="M40.7101 15.6064H27.8698C27.3842 15.6064 26.991 15.9996 26.991 16.4852V30.1276C26.991 30.6132 27.3842 31.0064 27.8698 31.0064H40.7101V15.6064Z" fill="#72BDF6"/>
<path d="M95.5865 31.0064H81.8674V15.6064H95.5865V31.0064Z" fill="#72BDF6"/>
<path d="M81.8676 31.0064H68.1484V15.6064H81.8676V31.0064Z" fill="#B4E1F9"/>
<path d="M95.5867 15.6064H108.428C108.913 15.6064 109.306 15.9996 109.306 16.4852V30.1276C109.306 30.6132 108.913 31.0064 108.428 31.0064H95.5867V15.6064Z" fill="#B4E1F9"/>
<path d="M118.966 39.0903H17.3309C16.505 39.0903 15.8347 39.7596 15.8347 40.5865V45.2028C15.8347 46.0298 16.505 46.699 17.3309 46.699H118.966C119.793 46.699 120.462 46.0298 120.462 45.2028V40.5865C120.462 39.7596 119.793 39.0903 118.966 39.0903Z" fill="#E4E3E1"/>
<path d="M118.966 0.5H17.3309C16.505 0.5 15.8347 1.17029 15.8347 1.99622V6.61249C15.8347 7.43945 16.505 8.1087 17.3309 8.1087H118.966C119.793 8.1087 120.462 7.43945 120.462 6.61249V1.99622C120.462 1.17029 119.793 0.5 118.966 0.5Z" fill="#E4E3E1"/>
<path d="M118.966 41.4146H17.3309C16.6191 41.4146 16.0256 40.9175 15.8731 40.2514C15.8482 40.3593 15.8347 40.4714 15.8347 40.5865V45.2028C15.8347 46.0298 16.505 46.699 17.3309 46.699H118.966C119.793 46.699 120.463 46.0298 120.463 45.2028V40.5865C120.463 40.4714 120.448 40.3593 120.424 40.2514C120.271 40.9175 119.678 41.4146 118.966 41.4146Z" fill="#D1D0CF"/>
<path d="M118.966 2.82422H17.3309C16.6191 2.82422 16.0256 2.32721 15.8731 1.66211C15.8482 1.77002 15.8347 1.88104 15.8347 1.99622V6.61249C15.8347 7.43945 16.504 8.1087 17.3309 8.1087H118.966C119.793 8.1087 120.462 7.43945 120.462 6.61249V1.99622C120.462 1.88104 120.448 1.76898 120.424 1.66211C120.271 2.32721 119.677 2.82422 118.966 2.82422Z" fill="#D1D0CF"/>
<path d="M120.462 136.5H15.8348C14.7173 136.5 13.8125 135.595 13.8125 134.478C13.8125 133.361 14.7173 132.456 15.8348 132.456H120.462C121.579 132.456 122.484 133.361 122.484 134.478C122.484 135.595 121.579 136.5 120.462 136.5Z" fill="#3E4151"/>
<path d="M44.7568 60.497C44.7568 59.8298 45.4655 59.4957 46.1752 59.4957H50.4512C52.5367 59.4957 54.6234 60.2469 54.6234 63.2093C54.6234 64.8985 53.9551 66.0046 52.8501 66.4839C54.1222 66.9644 54.999 67.7353 54.999 69.8219V70.2598C54.999 73.5562 53.1635 74.7443 50.806 74.7443H46.1752C45.2985 74.7443 44.7568 74.2856 44.7568 73.7648V60.497ZM47.99 65.2326H50.1804C50.972 65.2326 51.3684 64.5021 51.3684 63.7924C51.3684 63.063 50.972 62.3325 50.1804 62.3325H47.99V65.2326ZM50.0756 71.9075C51.1183 71.9075 51.744 71.3233 51.744 69.989V69.6548C51.744 68.2365 51.1183 67.7353 50.0756 67.7353H47.99V71.9075H50.0756Z" fill="#E4E3E1"/>
<path d="M55.6433 73.4099C55.6433 73.3466 55.6641 73.2636 55.6859 73.1796L59.5654 60.4555C59.7947 59.725 60.7338 59.3702 61.6935 59.3702C62.6533 59.3702 63.5913 59.725 63.8206 60.4555L67.722 73.1796C67.7427 73.2636 67.7635 73.3466 67.7635 73.4099C67.7635 74.1808 66.5744 74.7443 65.6779 74.7443C65.156 74.7443 64.7389 74.5772 64.6133 74.1393L63.9047 71.5319H59.5032L58.7935 74.1393C58.6689 74.5772 58.2508 74.7443 57.7299 74.7443C56.8324 74.7443 55.6433 74.1808 55.6433 73.4099ZM63.2167 69.0292L61.6935 63.4386L60.1703 69.0292H63.2167Z" fill="#E4E3E1"/>
<path d="M76.1897 73.8685L72.2261 66.651V73.743C72.2261 74.4112 71.4126 74.7443 70.5991 74.7443C69.7856 74.7443 68.9722 74.4102 68.9722 73.743V60.497C68.9722 59.8091 69.7856 59.4957 70.5991 59.4957C71.7675 59.4957 72.2053 59.6005 72.998 61.1227L76.3775 67.5682V60.4763C76.3775 59.7883 77.191 59.4957 78.0045 59.4957C78.8179 59.4957 79.6314 59.7883 79.6314 60.4763V73.744C79.6314 74.4112 78.8179 74.7443 78.0045 74.7443C77.2532 74.7443 76.5861 74.598 76.1897 73.8685Z" fill="#E4E3E1"/>
<path d="M81.8831 60.4763C81.8831 59.7873 82.6965 59.4957 83.51 59.4957C84.3235 59.4957 85.137 59.7873 85.137 60.4763V65.4827L89.0383 59.9543C89.2676 59.6213 89.5592 59.4957 89.8933 59.4957C90.7275 59.4957 91.8118 60.3507 91.8118 61.1642C91.8118 61.3312 91.7703 61.5605 91.6033 61.7899L88.1823 66.0876L92.5008 72.7002C92.6046 72.8672 92.6678 73.0551 92.6678 73.2429C92.6678 74.0563 91.6448 74.8698 90.7068 74.8698C90.2689 74.8698 89.8508 74.7028 89.58 74.2649L86.0127 68.8414L85.137 69.9672V73.743C85.137 74.4102 84.3235 74.7443 83.51 74.7443C82.6965 74.7443 81.8831 74.4102 81.8831 73.743V60.4763Z" fill="#E4E3E1"/>
</g>
<defs>
<clipPath id="clip0_6062_4231">
<rect width="136" height="136" fill="white" transform="translate(0 0.5)"/>
</clipPath>
</defs>
</svg>
