<svg width="33" height="32" viewBox="0 0 33 32" fill="none" xmlns="http://www.w3.org/2000/svg">
<g clip-path="url(#clip0_4059_10816)">
<path d="M21.2515 12.8369V16.8836L13.8379 16.9502L13.8753 24.2804H16.8749L16.8882 19.7559L21.2522 19.6831V24.1524H24.3009V12.8369H21.2515ZM16.2686 19.1452L16.2553 23.6592H14.493L14.4618 17.5643L21.8724 17.4977V13.4578H23.6794V23.5316H21.8724V19.0518L16.2686 19.1452Z" fill="#003366"/>
<path d="M19.4266 9.01001H16.9941V11.6684H19.4266V9.01001Z" fill="#003366"/>
<path d="M12.3181 12.8067V8.69702H9.26953V20.0127H12.3181V16.3123H13.5644L12.0871 14.4968L10.6275 16.3123H11.6972V19.3919H9.8902V9.31787H11.6972V13.4276H19.1045L19.0722 15.4834L19.693 15.493L19.7351 12.8067H12.3181Z" fill="#003366"/>
<path d="M31.1922 9.75594C29.5689 5.92691 26.5208 2.8788 22.6918 1.25555C20.722 0.42242 18.63 0 16.4739 0C14.3177 0 12.2257 0.42242 10.2559 1.25555C6.42691 2.8788 3.3788 5.92691 1.75555 9.75594C0.92242 11.7257 0.5 13.8177 0.5 15.9739C0.5 18.13 0.92242 20.222 1.75555 22.1918C3.3788 26.0208 6.42691 29.0689 10.2559 30.6922C12.2257 31.5253 14.3177 31.9477 16.4739 31.9477C18.63 31.9477 20.722 31.5253 22.6918 30.6922C26.5208 29.0689 29.5689 26.0208 31.1922 22.1918C32.0253 20.2217 32.4477 18.13 32.4477 15.9739C32.4477 13.8177 32.0253 11.7257 31.1922 9.75594ZM31.0882 15.9739C31.0882 24.0318 24.5323 30.5882 16.4739 30.5882C8.4154 30.5882 1.85955 24.0318 1.85955 15.9739C1.85955 7.91593 8.41593 1.35955 16.4739 1.35955C24.5318 1.35955 31.0882 7.91593 31.0882 15.9739Z" fill="#003366"/>
<path d="M15.8984 28.9179C15.6041 28.9051 15.3072 28.8824 15.0156 28.8492L15.1343 27.791C15.402 27.821 15.6747 27.8421 15.9449 27.854L15.8984 28.9179ZM17.336 28.9023L17.2661 27.8396C17.5357 27.8219 17.808 27.7946 18.0751 27.7587L18.2171 28.8142C17.9264 28.8533 17.6299 28.8829 17.3364 28.9023H17.336ZM13.5964 28.6098C13.3094 28.5446 13.0211 28.4688 12.7396 28.3842L13.0462 27.3643C13.3044 27.4419 13.5687 27.5115 13.8319 27.5713L13.5964 28.6098ZM19.6309 28.543L19.3722 27.51C19.634 27.4446 19.8968 27.3681 20.1531 27.2857L20.4822 28.2984C20.2026 28.3893 19.9162 28.4717 19.6308 28.543H19.6309ZM11.3865 27.8932C11.1158 27.7775 10.8457 27.651 10.5835 27.517L11.0682 26.5688C11.3087 26.6918 11.5567 26.8079 11.805 26.914L11.3865 27.8932ZM21.8242 27.7777L21.3842 26.8079C21.6293 26.6966 21.874 26.5752 22.1119 26.4471L22.6175 27.3844C22.3582 27.5241 22.0914 27.6563 21.824 27.7777H21.8242ZM9.3404 26.7914C9.09494 26.6292 8.85196 26.4565 8.61821 26.2779L9.26444 25.4315C9.4792 25.5955 9.70213 25.754 9.92736 25.9029L9.3404 26.7914ZM23.8432 26.6317L23.2362 25.7567C23.4579 25.6031 23.6773 25.4398 23.8881 25.2714L24.5528 26.1035C24.3235 26.287 24.0846 26.4648 23.8431 26.6322L23.8432 26.6317ZM7.52453 25.3424C7.31155 25.1394 7.10371 24.9264 6.90546 24.7093L7.69173 23.991C7.87383 24.1903 8.06445 24.3859 8.25969 24.5725L7.52453 25.3424ZM25.6263 25.1447L24.8741 24.3907C25.0652 24.2001 25.2521 24.0002 25.4298 23.797L26.2315 24.4979C26.0379 24.7199 25.8343 24.937 25.6261 25.1452L25.6263 25.1447ZM5.99619 23.5952C5.82296 23.3574 5.65595 23.1108 5.49923 22.8622L6.40068 22.2953C6.54409 22.5235 6.69744 22.7498 6.85647 22.9681L5.99619 23.5952ZM27.1181 23.3645L26.2439 22.7562C26.3982 22.5345 26.5467 22.3047 26.6853 22.0731L27.5991 22.6201C27.4471 22.8727 27.2853 23.1231 27.1172 23.3647L27.1181 23.3645ZM4.80152 21.6043C4.67373 21.3397 4.55304 21.0674 4.44424 20.795L5.43249 20.3985C5.53277 20.6484 5.64317 20.8983 5.76049 21.1411L4.80152 21.6043ZM28.2678 21.3459L27.2989 20.904C27.4111 20.658 27.516 20.4052 27.6109 20.1523L28.6079 20.5266C28.5044 20.8016 28.3901 21.0777 28.2678 21.3459ZM3.98384 19.4312C3.90557 19.1472 3.83617 18.8579 3.7776 18.5695L4.82105 18.3565C4.87429 18.6211 4.93854 18.887 5.01043 19.1468L3.98384 19.4312ZM29.0378 19.1523L28.0051 18.8918C28.071 18.6304 28.1294 18.3631 28.1766 18.0975L29.2247 18.2864C29.1725 18.5759 29.1096 18.8669 29.0378 19.1523ZM3.57065 17.1453C3.54438 16.853 3.52787 16.5557 3.52148 16.2613L4.58641 16.2382C4.59244 16.5085 4.60753 16.7817 4.63167 17.05L3.57065 17.1453ZM29.4016 16.858L28.3392 16.787C28.3569 16.5183 28.3665 16.2448 28.3665 15.9741V15.953L29.4314 15.9517V15.9739C29.4305 16.2684 29.4206 16.566 29.4007 16.8585L29.4016 16.858ZM4.62847 14.9179L3.56763 14.8247C3.59354 14.5315 3.62975 14.2356 3.67537 13.9456L4.72733 14.1103C4.68545 14.3765 4.65226 14.6488 4.62847 14.9179ZM28.2911 14.6339C28.2609 14.3655 28.2211 14.0948 28.1729 13.8299L29.22 13.6391C29.2733 13.928 29.3161 14.2228 29.3487 14.5153L28.2911 14.6339ZM5.00475 12.8201L3.97763 12.5385C4.05554 12.2545 4.14429 11.9705 4.24137 11.6926L5.24648 12.0443C5.15756 12.2999 5.07627 12.5601 5.00492 12.8203L5.00475 12.8201ZM27.8651 12.5461C27.7875 12.2879 27.6999 12.0289 27.6046 11.7763L28.601 11.4004C28.7048 11.6757 28.8003 11.9581 28.885 12.2398L27.8651 12.5461ZM5.75268 10.8245L4.79318 10.363C4.91955 10.0975 5.05852 9.83285 5.20353 9.57726L6.12931 10.1037C5.99619 10.3387 5.86911 10.5811 5.75197 10.8243L5.75268 10.8245ZM27.07 10.5691C26.9473 10.3291 26.8146 10.0898 26.6758 9.85911L27.5886 9.31068C27.74 9.56271 27.8845 9.82308 28.0181 10.0847L27.07 10.5691ZM6.84564 8.99351L5.98448 8.36769C6.15717 8.12986 6.34052 7.89468 6.52918 7.66892L7.34563 8.35189C7.17258 8.5592 7.00414 8.77502 6.84564 8.99351ZM25.934 8.7665C25.7704 8.5521 25.5968 8.34053 25.4193 8.13731L26.22 7.43535C26.414 7.65632 26.6026 7.88688 26.7808 8.12045L25.934 8.7665ZM8.24779 7.38672L7.51087 6.61784C7.72385 6.41426 7.94518 6.21548 8.17059 6.02716L8.85338 6.84361C8.64679 7.01736 8.44267 7.19982 8.24779 7.38672ZM24.4941 7.19361C24.2946 7.01151 24.0859 6.83384 23.8754 6.66576L24.5386 5.83264C24.7685 6.01563 24.9953 6.20909 25.2131 6.40752L24.4941 7.19361ZM9.91227 6.05485L9.3239 5.16742C9.56972 5.00519 9.82282 4.84865 10.078 4.70346L10.6045 5.62906C10.3702 5.76253 10.1377 5.90576 9.91227 6.05485ZM22.7978 5.90115C22.5692 5.75738 22.3327 5.61965 22.0948 5.49186L22.5989 4.55366C22.8582 4.69299 23.1159 4.84315 23.3649 4.99987L22.7978 5.90115ZM11.7864 5.04175L11.3661 4.06327C11.636 3.94737 11.9134 3.83928 12.1907 3.74219L12.5425 4.7473C12.2883 4.8364 12.034 4.93544 11.7864 5.04175ZM20.8984 4.93242C20.6474 4.83179 20.3899 4.73861 20.1331 4.65572L20.4603 3.64227C20.7404 3.73279 21.0212 3.83431 21.2945 3.944L20.8984 4.93242ZM13.8117 4.3815L13.5742 3.34338C13.8607 3.27789 14.1533 3.22144 14.4439 3.17565L14.6095 4.22762C14.3424 4.26951 14.0738 4.32133 13.8117 4.3815ZM18.856 4.32062C18.5919 4.26738 18.3223 4.22176 18.0545 4.18627L18.1945 3.13057C18.4863 3.16926 18.7802 3.21931 19.0681 3.277L18.856 4.32062ZM15.9238 4.09486L15.8753 3.031C16.0737 3.02195 16.2754 3.01733 16.4747 3.01733C16.5698 3.01733 16.666 3.0184 16.7606 3.02035L16.7375 4.08528C16.4676 4.07924 16.1925 4.08226 15.9238 4.09486Z" fill="#003366"/>
</g>
<defs>
<clipPath id="clip0_4059_10816">
<rect width="31.9477" height="31.9477" fill="white" transform="translate(0.5)"/>
</clipPath>
</defs>
</svg>
