<svg width="150" height="151" viewBox="0 0 150 151" fill="none" xmlns="http://www.w3.org/2000/svg">
<g clip-path="url(#clip0_6021_1541)">
<path d="M148.713 43.5946L107.353 2.23506C106.529 1.41094 105.411 0.947754 104.246 0.947754H45.7541C44.5887 0.947754 43.471 1.41094 42.6469 2.23506L1.2873 43.5946C0.463184 44.4187 0 45.5364 0 46.7019V105.193C0 106.359 0.463184 107.476 1.2873 108.301L42.6469 149.66C43.471 150.484 44.5887 150.947 45.7541 150.947H104.246C105.411 150.947 106.529 150.484 107.353 149.66L148.712 108.301C149.537 107.476 150 106.359 150 105.193V46.7019C150 45.5364 149.537 44.4187 148.713 43.5946Z" fill="#F25A3C"/>
<path d="M150 46.7007V105.195C150 106.358 149.537 107.477 148.714 108.3L107.353 149.662C106.529 150.485 105.41 150.948 104.247 150.948H75V0.947754H104.247C105.41 0.947754 106.529 1.41064 107.353 2.23389L148.714 43.5952C149.537 44.4185 150 45.5376 150 46.7007Z" fill="#E43539"/>
<path d="M69.4837 32.0024H80.5163C83.0734 32.0024 85.0904 34.1769 84.8985 36.7269L81.1506 86.5315C80.978 88.8243 79.0676 90.5962 76.7684 90.5962H73.2314C70.9321 90.5962 69.0217 88.824 68.8491 86.5315L65.1015 36.7269C64.9099 34.1769 66.9267 32.0024 69.4837 32.0024Z" fill="#E9F3FB"/>
<path d="M84.8994 36.728L81.1494 86.5327C80.9795 88.8237 79.0664 90.5962 76.7695 90.5962H75V32.0024H80.5166C83.0742 32.0024 85.0898 34.1763 84.8994 36.728Z" fill="#D6E9F8"/>
<path d="M66.2256 111.089V111.119C66.2256 115.965 70.154 119.893 75 119.893C79.846 119.893 83.7744 115.965 83.7744 111.119V111.089C83.7744 106.243 79.846 102.315 75 102.315C70.154 102.315 66.2256 106.243 66.2256 111.089Z" fill="#E9F3FB"/>
<path d="M83.7744 111.089V111.119C83.7744 113.542 82.793 115.736 81.2051 117.324C79.6172 118.912 77.4229 119.893 75 119.893V102.315C79.8457 102.315 83.7744 106.244 83.7744 111.089Z" fill="#D6E9F8"/>
</g>
<defs>
<clipPath id="clip0_6021_1541">
<rect width="150" height="150" fill="white" transform="translate(0 0.947754)"/>
</clipPath>
</defs>
</svg>
