<svg width="32" height="32" viewBox="0 0 32 32" fill="none" xmlns="http://www.w3.org/2000/svg">
<path d="M20.7506 12.8368V16.8836L13.3369 16.9501L13.3744 24.2803H16.3739L16.3872 19.7558L20.7513 19.6831V24.1524H23.8V12.8368H20.7506ZM15.7676 19.1451L15.7543 23.6591H13.992L13.9608 17.5642L21.3714 17.4977V13.4577H23.1784V23.5315H21.3714V19.0517L15.7676 19.1451Z" fill="#F2F5F7"/>
<path d="M18.9256 9.01001H16.4932V11.6684H18.9256V9.01001Z" fill="#F2F5F7"/>
<path d="M11.8181 12.8067V8.69694H8.76953V20.0126H11.8181V16.3122H13.0644L11.5871 14.4967L10.1275 16.3122H11.1972V19.3918H9.3902V9.31779H11.1972V13.4275H18.6045L18.5722 15.4833L19.193 15.4929L19.2351 12.8067H11.8181Z" fill="#F2F5F7"/>
<path d="M30.6922 9.75594C29.0689 5.92691 26.0208 2.8788 22.1918 1.25555C20.222 0.42242 18.13 0 15.9739 0C13.8177 0 11.7257 0.42242 9.75594 1.25555C5.92691 2.8788 2.8788 5.92691 1.25555 9.75594C0.42242 11.7257 0 13.8177 0 15.9739C0 18.13 0.42242 20.222 1.25555 22.1918C2.8788 26.0208 5.92691 29.0689 9.75594 30.6922C11.7257 31.5253 13.8177 31.9477 15.9739 31.9477C18.13 31.9477 20.222 31.5253 22.1918 30.6922C26.0208 29.0689 29.0689 26.0208 30.6922 22.1918C31.5253 20.2217 31.9477 18.13 31.9477 15.9739C31.9477 13.8177 31.5253 11.7257 30.6922 9.75594ZM30.5882 15.9739C30.5882 24.0318 24.0323 30.5882 15.9739 30.5882C7.9154 30.5882 1.35955 24.0318 1.35955 15.9739C1.35955 7.91593 7.91593 1.35955 15.9739 1.35955C24.0318 1.35955 30.5882 7.91593 30.5882 15.9739Z" fill="#F2F5F7"/>
<path d="M15.3979 28.918C15.1036 28.9052 14.8067 28.8825 14.5151 28.8493L14.6338 27.7911C14.9015 27.8211 15.1743 27.8422 15.4444 27.8541L15.3979 28.918ZM16.8355 28.9023L16.7656 27.8397C17.0352 27.822 17.3075 27.7946 17.5746 27.7588L17.7166 28.8143C17.4259 28.8533 17.1295 28.883 16.8359 28.9023H16.8355ZM13.0959 28.6098C12.8089 28.5447 12.5206 28.4689 12.2392 28.3842L12.5457 27.3644C12.8039 27.442 13.0682 27.5115 13.3314 27.5714L13.0959 28.6098ZM19.1305 28.5431L18.8717 27.5101C19.1335 27.4446 19.3963 27.3681 19.6526 27.2858L19.9817 28.2985C19.7021 28.3894 19.4157 28.4717 19.1303 28.5431H19.1305ZM10.886 27.8933C10.6153 27.7776 10.3452 27.651 10.083 27.517L10.5678 26.5689C10.8083 26.6919 11.0562 26.808 11.3045 26.9141L10.886 27.8933ZM21.3237 27.7778L20.8837 26.808C21.1288 26.6967 21.3735 26.5753 21.6114 26.4471L22.117 27.3845C21.8577 27.5241 21.591 27.6564 21.3235 27.7778H21.3237ZM8.83992 26.7915C8.59445 26.6293 8.35147 26.4566 8.11772 26.278L8.76395 25.4316C8.97871 25.5956 9.20164 25.7541 9.42687 25.903L8.83992 26.7915ZM23.3428 26.6317L22.7358 25.7567C22.9574 25.6032 23.1768 25.4399 23.3877 25.2715L24.0524 26.1035C23.823 26.2871 23.5841 26.4649 23.3426 26.6323L23.3428 26.6317ZM7.02404 25.3425C6.81106 25.1394 6.60322 24.9264 6.40497 24.7094L7.19124 23.9911C7.37334 24.1904 7.56396 24.386 7.7592 24.5725L7.02404 25.3425ZM25.1258 25.1447L24.3736 24.3908C24.5648 24.2002 24.7517 24.0003 24.9293 23.7971L25.731 24.498C25.5374 24.72 25.3338 24.9371 25.1256 25.1453L25.1258 25.1447ZM5.4957 23.5953C5.32247 23.3575 5.15546 23.1109 4.99874 22.8623L5.9002 22.2954C6.0436 22.5236 6.19695 22.7499 6.35598 22.9682L5.4957 23.5953ZM26.6176 23.3646L25.7435 22.7563C25.8977 22.5346 26.0462 22.3048 26.1849 22.0732L27.0986 22.6202C26.9466 22.8727 26.7848 23.1232 26.6167 23.3647L26.6176 23.3646ZM4.30103 21.6044C4.17324 21.3398 4.05255 21.0675 3.94375 20.7951L4.932 20.3986C5.03228 20.6485 5.14268 20.8984 5.26 21.1412L4.30103 21.6044ZM27.7673 21.346L26.7984 20.904C26.9106 20.658 27.0155 20.4053 27.1105 20.1524L28.1074 20.5267C28.0039 20.8016 27.8896 21.0778 27.7673 21.346ZM3.48335 19.4313C3.40508 19.1473 3.33568 18.858 3.27711 18.5696L4.32056 18.3566C4.3738 18.6212 4.43805 18.8871 4.50994 19.1469L3.48335 19.4313ZM28.5373 19.1524L27.5047 18.8919C27.5705 18.6304 27.6289 18.3631 27.6761 18.0976L28.7242 18.2865C28.672 18.5759 28.6092 18.867 28.5373 19.1524ZM3.07016 17.1454C3.04389 16.8531 3.02739 16.5558 3.021 16.2613L4.08592 16.2383C4.09195 16.5086 4.10704 16.7817 4.13118 17.0501L3.07016 17.1454ZM28.9011 16.858L27.8387 16.787C27.8564 16.5183 27.866 16.2448 27.866 15.9742V15.953L28.9309 15.9518V15.974C28.9301 16.2684 28.9201 16.5661 28.9002 16.8586L28.9011 16.858ZM4.12798 14.9179L3.06714 14.8247C3.09306 14.5315 3.12926 14.2357 3.17488 13.9457L4.22684 14.1104C4.18496 14.3766 4.15177 14.6489 4.12798 14.9179ZM27.7906 14.634C27.7604 14.3656 27.7207 14.0949 27.6724 13.8299L28.7196 13.6391C28.7728 13.9281 28.8156 14.2229 28.8482 14.5154L27.7906 14.634ZM4.50426 12.8202L3.47714 12.5385C3.55506 12.2546 3.6438 11.9706 3.74088 11.6926L4.746 12.0444C4.65707 12.3 4.57578 12.5602 4.50443 12.8204L4.50426 12.8202ZM27.3646 12.5462C27.2871 12.2879 27.1994 12.029 27.1041 11.7764L28.1005 11.4005C28.2043 11.6758 28.2998 11.9582 28.3845 12.2398L27.3646 12.5462ZM5.25219 10.8245L4.29269 10.3631C4.41906 10.0976 4.55804 9.83292 4.70304 9.57734L5.62882 10.1038C5.4957 10.3388 5.36862 10.5812 5.25148 10.8244L5.25219 10.8245ZM26.5695 10.5691C26.4468 10.3292 26.3141 10.0899 26.1753 9.85919L27.0881 9.31075C27.2395 9.56278 27.384 9.82316 27.5176 10.0848L26.5695 10.5691ZM6.34516 8.99358L5.48399 8.36776C5.65668 8.12993 5.84003 7.89476 6.0287 7.66899L6.84514 8.35196C6.67209 8.55927 6.50365 8.77509 6.34516 8.99358ZM25.4336 8.76658C25.2699 8.55217 25.0963 8.34061 24.9188 8.13738L25.7195 7.43542C25.9135 7.65639 26.1022 7.88695 26.2803 8.12052L25.4336 8.76658ZM7.7473 7.38679L7.01038 6.61791C7.22336 6.41434 7.44469 6.21555 7.6701 6.02724L8.35289 6.84368C8.1463 7.01744 7.94219 7.19989 7.7473 7.38679ZM23.9936 7.19368C23.7941 7.01158 23.5854 6.83392 23.3749 6.66584L24.0382 5.83271C24.268 6.0157 24.4948 6.20916 24.7126 6.40759L23.9936 7.19368ZM9.41178 6.05492L8.82341 5.16749C9.06923 5.00526 9.32233 4.84872 9.57755 4.70354L10.104 5.62913C9.8697 5.7626 9.63719 5.90584 9.41178 6.05492ZM22.2974 5.90122C22.0688 5.75746 21.8322 5.61973 21.5943 5.49193L22.0984 4.55374C22.3577 4.69306 22.6154 4.84322 22.8644 4.99994L22.2974 5.90122ZM11.2859 5.04183L10.8656 4.06334C11.1355 3.94744 11.4129 3.83935 11.6902 3.74226L12.042 4.74738C11.7878 4.83647 11.5335 4.93551 11.2859 5.04183ZM20.3979 4.93249C20.1469 4.83186 19.8894 4.73868 19.6326 4.65579L19.9599 3.64234C20.2399 3.73286 20.5207 3.83438 20.794 3.94407L20.3979 4.93249ZM13.3112 4.38157L13.0737 3.34345C13.3602 3.27796 13.6528 3.22152 13.9434 3.17573L14.109 4.22769C13.8419 4.26958 13.5733 4.32141 13.3112 4.38157ZM18.3555 4.3207C18.0914 4.26745 17.8218 4.22184 17.554 4.18634L17.694 3.13064C17.9858 3.16934 18.2798 3.21939 18.5676 3.27707L18.3555 4.3207ZM15.4233 4.09493L15.3748 3.03107C15.5733 3.02202 15.7749 3.01741 15.9742 3.01741C16.0693 3.01741 16.1655 3.01847 16.2601 3.02042L16.2371 4.08535C15.9671 4.07931 15.692 4.08233 15.4233 4.09493Z" fill="#F2F5F7"/>
</svg>
