<svg width="80" height="49" viewBox="0 0 80 49" fill="none" xmlns="http://www.w3.org/2000/svg">
<path d="M58.6667 37.8333H21.3333V32.5H58.6667V37.8333ZM80 0.5V48.5H0V0.5H80ZM74.6667 5.83333H5.33333V43.1667H74.6667V5.83333ZM16 11.1667H10.6667V16.5H16V11.1667ZM26.6667 11.1667H21.3333V16.5H26.6667V11.1667ZM37.3333 11.1667H32V16.5H37.3333V11.1667ZM48 11.1667H42.6667V16.5H48V11.1667ZM58.6667 11.1667H53.3333V16.5H58.6667V11.1667ZM16 21.8333H10.6667V27.1667H16V21.8333ZM26.6667 21.8333H21.3333V27.1667H26.6667V21.8333ZM37.3333 21.8333H32V27.1667H37.3333V21.8333ZM48 21.8333H42.6667V27.1667H48V21.8333ZM58.6667 21.8333H53.3333V27.1667H58.6667V21.8333ZM16 32.5H10.6667V37.8333H16V32.5ZM69.3333 11.1667H64V16.5H69.3333V11.1667ZM69.3333 21.8333H64V27.1667H69.3333V21.8333ZM69.3333 32.5H64V37.8333H69.3333V32.5Z" fill="#040404"/>
</svg>
