<svg width="188" height="33" viewBox="0 0 188 33" fill="none" xmlns="http://www.w3.org/2000/svg">
<path d="M41.4547 23.8623V7.75497H45.5213V23.8623H41.4547ZM51.3145 23.8623V7.75497H55.3811V23.8623H51.3145ZM43.772 17.3194V13.9117H52.7912V17.3194H43.772ZM64.7696 18.0918L58.6129 7.75497H63.2702L67.9729 16.1381H64.7015L69.4042 7.75497H73.9705L67.7684 18.0918H64.7696ZM64.2925 23.8623V16.4334H68.3591V23.8623H64.2925ZM79.8756 18.0918V15.0703H83.0561C83.4499 15.0703 83.8058 14.9946 84.1239 14.8431C84.4571 14.6765 84.7221 14.4342 84.919 14.1161C85.1159 13.7981 85.2144 13.4043 85.2144 12.9348C85.2144 12.4653 85.1159 12.0715 84.919 11.7534C84.7221 11.4202 84.4571 11.1779 84.1239 11.0264C83.8058 10.8598 83.4499 10.7765 83.0561 10.7765H79.8756V7.75497H83.7604C84.7903 7.75497 85.7217 7.96701 86.5548 8.39109C87.3878 8.80002 88.0466 9.3907 88.5313 10.1631C89.0159 10.9204 89.2582 11.8443 89.2582 12.9348C89.2582 13.995 89.0159 14.9188 88.5313 15.7064C88.0466 16.4788 87.3878 17.0695 86.5548 17.4784C85.7217 17.8874 84.7903 18.0918 83.7604 18.0918H79.8756ZM76.6495 23.8623V7.75497H80.7161V23.8623H76.6495ZM92.6385 23.8623V7.75497H96.7051V23.8623H92.6385ZM95.8645 23.8623V20.4318H104.588V23.8623H95.8645ZM95.8645 17.3194V13.9798H103.77V17.3194H95.8645ZM95.8645 11.1855V7.75497H104.452V11.1855H95.8645ZM111.698 17.3421V14.4342H114.765C115.432 14.4342 115.939 14.2751 116.287 13.9571C116.651 13.6239 116.832 13.1771 116.832 12.6167C116.832 12.0715 116.651 11.6322 116.287 11.299C115.939 10.9507 115.432 10.7765 114.765 10.7765H111.698V7.75497H115.333C116.424 7.75497 117.378 7.95944 118.196 8.36837C119.029 8.7773 119.68 9.33769 120.149 10.0495C120.619 10.7614 120.854 11.5944 120.854 12.5486C120.854 13.5027 120.611 14.3433 120.127 15.0703C119.657 15.7821 118.998 16.3425 118.15 16.7515C117.302 17.1452 116.31 17.3421 115.174 17.3421H111.698ZM108.472 23.8623V7.75497H112.539V23.8623H108.472ZM117.196 23.8623L112.516 16.9559L116.174 16.0699L121.899 23.8623H117.196ZM125.422 23.8623V7.95944H128.035V23.8623H125.422ZM135.532 23.8623V7.95944H138.144V23.8623H135.532ZM127.217 16.8196V14.4342H136.1V16.8196H127.217ZM149.32 24.0895C148.123 24.0895 147.048 23.8169 146.094 23.2716C145.14 22.7264 144.382 21.9843 143.822 21.0452C143.277 20.0911 143.004 19.0157 143.004 17.8192V7.95944H145.617V17.7965C145.617 18.5689 145.776 19.2429 146.094 19.8184C146.427 20.3788 146.874 20.818 147.434 21.1361C147.995 21.439 148.623 21.5905 149.32 21.5905C150.032 21.5905 150.66 21.439 151.205 21.1361C151.751 20.818 152.182 20.3788 152.5 19.8184C152.818 19.2429 152.977 18.5765 152.977 17.8192V7.95944H155.59V17.8419C155.59 19.0384 155.317 20.1062 154.772 21.0452C154.227 21.9843 153.485 22.7264 152.546 23.2716C151.607 23.8169 150.531 24.0895 149.32 24.0895ZM162.256 23.8623V21.5905H166.823C167.625 21.5905 168.246 21.3406 168.686 20.8408C169.125 20.341 169.344 19.7654 169.344 19.1142C169.344 18.6749 169.246 18.266 169.049 17.8874C168.852 17.5087 168.564 17.2058 168.186 16.9786C167.807 16.7515 167.353 16.6379 166.823 16.6379H162.256V14.366H166.436C167.118 14.366 167.663 14.1918 168.072 13.8435C168.481 13.4952 168.686 12.9802 168.686 12.2987C168.686 11.6171 168.481 11.1021 168.072 10.7538C167.663 10.4055 167.118 10.2313 166.436 10.2313H162.256V7.95944H166.505C167.58 7.95944 168.474 8.15633 169.185 8.55012C169.897 8.9439 170.427 9.45128 170.776 10.0722C171.124 10.6932 171.298 11.3596 171.298 12.0715C171.298 12.9045 171.063 13.639 170.594 14.2751C170.14 14.9113 169.466 15.4262 168.572 15.82L168.776 15.0021C169.776 15.4111 170.556 15.9866 171.116 16.7287C171.677 17.4709 171.957 18.3417 171.957 19.3413C171.957 20.1592 171.753 20.9089 171.344 21.5905C170.95 22.272 170.359 22.8248 169.572 23.2489C168.799 23.6578 167.845 23.8623 166.709 23.8623H162.256ZM160.462 23.8623V7.95944H163.074V23.8623H160.462ZM180.304 24.0895C179.047 24.0895 177.979 23.8623 177.1 23.4079C176.222 22.9536 175.434 22.2872 174.738 21.4087L176.51 19.6367C176.949 20.2728 177.472 20.7726 178.077 21.1361C178.683 21.4844 179.456 21.6586 180.395 21.6586C181.273 21.6586 181.97 21.4769 182.485 21.1134C183.015 20.7499 183.28 20.2501 183.28 19.614C183.28 19.0839 183.144 18.6522 182.871 18.319C182.598 17.9858 182.235 17.7132 181.78 17.5012C181.341 17.274 180.849 17.0771 180.304 16.9105C179.774 16.7287 179.236 16.5318 178.691 16.3198C178.161 16.0926 177.668 15.8124 177.214 15.4792C176.775 15.146 176.419 14.7144 176.146 14.1843C175.874 13.6542 175.737 12.9802 175.737 12.1623C175.737 11.2233 175.965 10.4282 176.419 9.77691C176.888 9.11051 177.517 8.60313 178.305 8.25478C179.092 7.90643 179.971 7.73226 180.94 7.73226C181.985 7.73226 182.916 7.93672 183.734 8.34565C184.567 8.75458 185.241 9.27711 185.756 9.91322L183.984 11.6853C183.53 11.1703 183.053 10.7917 182.553 10.5493C182.068 10.2919 181.508 10.1631 180.872 10.1631C180.084 10.1631 179.463 10.3222 179.009 10.6402C178.57 10.9583 178.35 11.4051 178.35 11.9806C178.35 12.4653 178.486 12.859 178.759 13.1619C179.032 13.4497 179.387 13.6996 179.827 13.9117C180.281 14.1085 180.773 14.2979 181.303 14.4796C181.849 14.6614 182.386 14.8658 182.916 15.093C183.462 15.3202 183.954 15.6155 184.393 15.979C184.847 16.3274 185.211 16.7817 185.484 17.3421C185.756 17.9025 185.892 18.6068 185.892 19.4549C185.892 20.8786 185.385 22.007 184.37 22.84C183.371 23.673 182.015 24.0895 180.304 24.0895Z" fill="#003366"/>
<g clip-path="url(#clip0_2330_1802)">
<path d="M21.7266 13.363V17.4097L14.313 17.4763L14.3504 24.8065H17.35L17.3633 20.282L21.7273 20.2093V24.6786H24.776V13.363H21.7266ZM16.7437 19.6713L16.7304 24.1853H14.9681L14.9369 18.0904L22.3475 18.0239V13.9839H24.1545V24.0577H22.3475V19.5779L16.7437 19.6713Z" fill="#003366"/>
<path d="M19.9017 9.53613H17.4692V12.1945H19.9017V9.53613Z" fill="#003366"/>
<path d="M12.7941 13.3329V9.22314H9.74561V20.5388H12.7941V16.8384H14.0404L12.5632 15.0229L11.1036 16.8384H12.1733V19.918H10.3663V9.84399H12.1733V13.9537H19.5805L19.5482 16.0095L20.1691 16.0191L20.2111 13.3329H12.7941Z" fill="#003366"/>
<path d="M31.6682 10.2821C30.045 6.45303 26.9969 3.40492 23.1678 1.78167C21.1981 0.948543 19.106 0.526123 16.9499 0.526123C14.7938 0.526123 12.7018 0.948543 10.732 1.78167C6.90298 3.40492 3.85487 6.45303 2.23162 10.2821C1.39849 12.2518 0.976074 14.3439 0.976074 16.5C0.976074 18.6561 1.39849 20.7481 2.23162 22.7179C3.85487 26.5469 6.90298 29.595 10.732 31.2183C12.7018 32.0514 14.7938 32.4738 16.9499 32.4738C19.106 32.4738 21.1981 32.0514 23.1678 31.2183C26.9969 29.595 30.045 26.5469 31.6682 22.7179C32.5014 20.7478 32.9238 18.6561 32.9238 16.5C32.9238 14.3439 32.5014 12.2518 31.6682 10.2821ZM31.5642 16.5C31.5642 24.5579 25.0084 31.1143 16.9499 31.1143C8.89148 31.1143 2.33563 24.5579 2.33563 16.5C2.33563 8.44206 8.89201 1.88568 16.9499 1.88568C25.0079 1.88568 31.5642 8.44206 31.5642 16.5Z" fill="#003366"/>
<path d="M16.374 29.444C16.0797 29.4312 15.7828 29.4085 15.4911 29.3753L15.6099 28.3171C15.8775 28.3471 16.1503 28.3682 16.4205 28.3801L16.374 29.444ZM17.8116 29.4284L17.7417 28.3658C18.0113 28.348 18.2836 28.3207 18.5507 28.2848L18.6927 29.3403C18.4019 29.3794 18.1055 29.409 17.812 29.4284H17.8116ZM14.072 29.1359C13.785 29.0707 13.4967 28.995 13.2152 28.9103L13.5217 27.8905C13.78 27.968 14.0443 28.0376 14.3075 28.0974L14.072 29.1359ZM20.1065 29.0691L19.8478 28.0362C20.1095 27.9707 20.3724 27.8942 20.6287 27.8118L20.9578 28.8246C20.6782 28.9154 20.3917 28.9978 20.1063 29.0691H20.1065ZM11.8621 28.4194C11.5914 28.3036 11.3213 28.1771 11.0591 28.0431L11.5438 27.095C11.7843 27.218 12.0323 27.334 12.2806 27.4402L11.8621 28.4194ZM22.2997 28.3038L21.8597 27.334C22.1049 27.2227 22.3496 27.1013 22.5874 26.9732L23.0931 27.9105C22.8338 28.0502 22.567 28.1824 22.2996 28.3038H22.2997ZM9.81599 27.3175C9.57053 27.1553 9.32755 26.9826 9.0938 26.8041L9.74003 25.9576C9.95479 26.1216 10.1777 26.2801 10.4029 26.429L9.81599 27.3175ZM24.3188 27.1578L23.7118 26.2828C23.9335 26.1292 24.1529 25.966 24.3637 25.7975L25.0284 26.6296C24.7991 26.8131 24.5602 26.9909 24.3187 27.1583L24.3188 27.1578ZM8.00012 25.8685C7.78713 25.6655 7.5793 25.4525 7.38104 25.2354L8.16731 24.5171C8.34941 24.7164 8.54004 24.912 8.73527 25.0986L8.00012 25.8685ZM26.1019 25.6708L25.3497 24.9168C25.5408 24.7262 25.7277 24.5264 25.9054 24.3231L26.7071 25.024C26.5135 25.2461 26.3099 25.4631 26.1017 25.6713L26.1019 25.6708ZM6.47178 24.1213C6.29855 23.8835 6.13153 23.637 5.97481 23.3883L6.87627 22.8214C7.01968 23.0497 7.17303 23.276 7.33206 23.4943L6.47178 24.1213ZM27.5936 23.8906L26.7195 23.2824C26.8738 23.0607 27.0223 22.8308 27.1609 22.5992L28.0746 23.1462C27.9227 23.3988 27.7608 23.6492 27.5928 23.8908L27.5936 23.8906ZM5.27711 22.1305C5.14932 21.8658 5.02863 21.5936 4.91983 21.3211L5.90808 20.9246C6.00836 21.1745 6.11875 21.4244 6.23607 21.6672L5.27711 22.1305ZM28.7434 21.872L27.7745 21.4301C27.8867 21.1841 27.9916 20.9314 28.0865 20.6784L29.0835 21.0528C28.98 21.3277 28.8657 21.6039 28.7434 21.872ZM4.45942 19.9573C4.38115 19.6733 4.31176 19.384 4.25318 19.0956L5.29663 18.8826C5.34988 19.1473 5.41413 19.4131 5.48601 19.673L4.45942 19.9573ZM29.5134 19.6785L28.4807 19.4179C28.5466 19.1565 28.605 18.8892 28.6522 18.6237L29.7002 18.8125C29.6481 19.102 29.5852 19.3931 29.5134 19.6785ZM4.04623 17.6714C4.01997 17.3791 4.00346 17.0818 3.99707 16.7874L5.06199 16.7643C5.06803 17.0346 5.08312 17.3078 5.10725 17.5761L4.04623 17.6714ZM29.8772 17.3841L28.8148 17.3131C28.8325 17.0444 28.8421 16.7709 28.8421 16.5002V16.4791L29.907 16.4778V16.5C29.9061 16.7945 29.8962 17.0921 29.8763 17.3846L29.8772 17.3841ZM5.10406 15.444L4.04322 15.3508C4.06913 15.0576 4.10534 14.7617 4.15095 14.4717L5.20292 14.6364C5.16103 14.9026 5.12784 15.1749 5.10406 15.444ZM28.7667 15.16C28.7365 14.8916 28.6967 14.621 28.6485 14.356L29.6956 14.1652C29.7489 14.4541 29.7917 14.7489 29.8243 15.0414L28.7667 15.16ZM5.48033 13.3463L4.45321 13.0646C4.53113 12.7806 4.61987 12.4966 4.71696 12.2187L5.72207 12.5705C5.63315 12.826 5.55186 13.0862 5.48051 13.3464L5.48033 13.3463ZM28.3407 13.0722C28.2631 12.814 28.1755 12.555 28.0801 12.3025L29.0766 11.9265C29.1804 12.2018 29.2759 12.4842 29.3605 12.7659L28.3407 13.0722ZM6.22826 11.3506L5.26877 10.8891C5.39514 10.6236 5.53411 10.359 5.67912 10.1034L6.60489 10.6298C6.47178 10.8648 6.34469 11.1073 6.22755 11.3504L6.22826 11.3506ZM27.5456 11.0952C27.4229 10.8552 27.2901 10.616 27.1514 10.3852L28.0642 9.8368C28.2156 10.0888 28.36 10.3492 28.4937 10.6108L27.5456 11.0952ZM7.32123 9.51963L6.46006 8.89381C6.63276 8.65598 6.8161 8.42081 7.00477 8.19504L7.82121 8.87802C7.64816 9.08532 7.47973 9.30115 7.32123 9.51963ZM26.4096 9.29263C26.246 9.07822 26.0724 8.86666 25.8949 8.66343L26.6956 7.96147C26.8896 8.18244 27.0782 8.413 27.2564 8.64657L26.4096 9.29263ZM8.72338 7.91284L7.98645 7.14396C8.19944 6.94039 8.42076 6.7416 8.64617 6.55329L9.32897 7.36973C9.12237 7.54349 8.91826 7.72594 8.72338 7.91284ZM24.9697 7.71973C24.7702 7.53763 24.5615 7.35997 24.351 7.19189L25.0142 6.35876C25.2441 6.54175 25.4709 6.73521 25.6887 6.93364L24.9697 7.71973ZM10.3879 6.58098L9.79948 5.69354C10.0453 5.53132 10.2984 5.37477 10.5536 5.22959L11.0801 6.15518C10.8458 6.28865 10.6133 6.43189 10.3879 6.58098ZM23.2734 6.42727C23.0448 6.28351 22.8082 6.14578 22.5704 6.01799L23.0745 5.07979C23.3338 5.21911 23.5915 5.36927 23.8405 5.52599L23.2734 6.42727ZM12.2619 5.56788L11.8417 4.58939C12.1116 4.47349 12.389 4.3654 12.6663 4.26832L13.018 5.27343C12.7639 5.36252 12.5095 5.46156 12.2619 5.56788ZM21.374 5.45854C21.123 5.35791 20.8655 5.26473 20.6086 5.18184L20.9359 4.16839C21.216 4.25891 21.4968 4.36043 21.7701 4.47012L21.374 5.45854ZM14.2873 4.90762L14.0498 3.8695C14.3362 3.80401 14.6289 3.74757 14.9195 3.70178L15.0851 4.75374C14.8179 4.79563 14.5494 4.84746 14.2873 4.90762ZM19.3316 4.84675C19.0675 4.7935 18.7979 4.74789 18.5301 4.71239L18.6701 3.65669C18.9619 3.69539 19.2558 3.74544 19.5437 3.80312L19.3316 4.84675ZM16.3993 4.62098L16.3509 3.55712C16.5493 3.54807 16.751 3.54346 16.9503 3.54346C17.0454 3.54346 17.1416 3.54452 17.2362 3.54647L17.2131 4.6114C16.9432 4.60536 16.6681 4.60838 16.3993 4.62098Z" fill="#003366"/>
</g>
<defs>
<clipPath id="clip0_2330_1802">
<rect width="31.9477" height="31.9477" fill="white" transform="translate(0.976074 0.526123)"/>
</clipPath>
</defs>
</svg>
