<svg width="136" height="136" viewBox="0 0 136 136" fill="none" xmlns="http://www.w3.org/2000/svg">
<path d="M0 50.3941L68 41.1224L136 50.3941L68 85.0071L0 50.3941Z" fill="#7A6D79"/>
<path d="M0 60.0857L68 50.814L136 60.0857L68 94.699L0 60.0857Z" fill="#685E68"/>
<path d="M68 59.6652L77.1178 107.986L68 134.301L9.73356 126.357C4.1565 125.596 0 120.835 0 115.206V50.3941L68 59.6652Z" fill="#FEA95C"/>
<path d="M136 50.3941V115.206C136 120.835 131.843 125.596 126.266 126.357L68 134.301V59.6652L136 50.3941Z" fill="#FEC165"/>
<path d="M58.8822 68.0882V119.705C58.8822 121.656 57.1604 123.159 55.2269 122.895L11.0277 116.868C10.2013 116.755 9.57739 116.041 9.57739 115.207V61.3647L58.8822 68.0882Z" fill="#FEC165"/>
<path d="M58.8824 68.0882V80.1611L34.2298 83.5228L9.57739 73.4378V61.3647L58.8824 68.0882Z" fill="#FFE177"/>
<path d="M58.8824 80.161V92.3793L9.57739 85.6558V73.4378L58.8824 80.161Z" fill="#99E6FC"/>
<path d="M126.423 69.0261V104.931C126.423 111.656 121.454 117.348 114.79 118.257L92.3845 121.312C84.3089 122.413 77.1179 116.136 77.1179 107.986V73.9255C77.1179 70.5813 79.5882 67.7511 82.9019 67.2993L118.832 62.3998C122.847 61.8523 126.423 64.9734 126.423 69.0261Z" fill="#FE9738"/>
<path d="M126.422 69.0274V85.0079C126.422 91.7341 121.453 97.4259 114.79 98.3343L92.3842 101.388C84.3089 102.491 77.1177 96.2136 77.1177 88.0618V73.9255C77.1177 70.5816 79.5888 67.7521 82.9025 67.3006L118.832 62.3998C122.846 61.8526 126.422 64.9748 126.422 69.0274Z" fill="#FEA95C"/>
<path d="M103.412 92.6848C105.828 92.6848 107.786 89.9555 107.786 86.5887C107.786 83.2219 105.828 80.4926 103.412 80.4926C100.997 80.4926 99.0386 83.2219 99.0386 86.5887C99.0386 89.9555 100.997 92.6848 103.412 92.6848Z" fill="#FFE177"/>
<path d="M68.2356 24.0079C65.6702 24.0079 63.5906 21.9283 63.5906 19.3629V6.34411C63.5906 3.77871 65.6702 1.69913 68.2356 1.69913C70.801 1.69913 72.8805 3.77871 72.8805 6.34411V19.3629C72.8805 21.9283 70.801 24.0079 68.2356 24.0079Z" fill="#FE646F"/>
<path d="M82.8255 26.6658C80.4866 25.6115 79.4454 22.861 80.4997 20.5221L85.8496 8.65347C86.9039 6.31464 89.6544 5.27339 91.9932 6.32766C94.3321 7.38192 95.3733 10.1325 94.3191 12.4713L88.9691 24.34C87.9148 26.6788 85.1643 27.72 82.8255 26.6658Z" fill="#FE646F"/>
<path d="M53.6456 26.7956C55.9844 25.7414 57.0257 22.9908 55.9714 20.652L50.6214 8.78335C49.5672 6.44452 46.8166 5.40327 44.4778 6.45754C42.139 7.5118 41.0977 10.2624 42.152 12.6012L47.5019 24.4698C48.5562 26.8087 51.3068 27.8499 53.6456 26.7956Z" fill="#FE646F"/>
</svg>
