<svg width="136" height="137" viewBox="0 0 136 137" fill="none" xmlns="http://www.w3.org/2000/svg">
<g clip-path="url(#clip0_6064_276)">
<path d="M96.3962 136.5H12.1872C9.34367 136.5 7.03857 134.195 7.03857 131.351V5.64861C7.03857 2.80509 9.34367 0.5 12.1872 0.5H96.3962C99.2397 0.5 101.545 2.80509 101.545 5.64861V131.352C101.545 134.195 99.2397 136.5 96.3962 136.5Z" fill="#DFF6FD"/>
<path d="M101.545 5.64728V131.353C101.545 134.196 99.2411 136.5 96.3952 136.5H82.7129C85.5588 136.5 87.8628 134.196 87.8628 131.353V5.64728C87.8628 2.80403 85.5588 0.5 82.7129 0.5H96.395C99.2409 0.5 101.545 2.80403 101.545 5.64728Z" fill="#C8EFFE"/>
<path d="M79.0684 70.5522H40.2773C39.1436 70.5522 38.2251 69.6334 38.2251 68.5C38.2251 67.3666 39.1439 66.4478 40.2773 66.4478H79.0684C80.2021 66.4478 81.1206 67.3666 81.1206 68.5C81.1206 69.6334 80.2021 70.5522 79.0684 70.5522Z" fill="#678D98"/>
<path d="M79.0684 90.2364H40.2773C39.1436 90.2364 38.2251 89.3176 38.2251 88.1841C38.2251 87.0507 39.1439 86.1319 40.2773 86.1319H79.0684C80.2021 86.1319 81.1206 87.0507 81.1206 88.1841C81.1206 89.3176 80.2021 90.2364 79.0684 90.2364Z" fill="#678D98"/>
<path d="M86.1834 109.921H40.2773C39.1436 109.921 38.2251 109.002 38.2251 107.869C38.2251 106.735 39.1439 105.816 40.2773 105.816H86.1834C87.3171 105.816 88.2356 106.735 88.2356 107.869C88.2356 109.002 87.3168 109.921 86.1834 109.921Z" fill="#678D98"/>
<path d="M124.248 108.144L109.646 119.737C106.348 122.355 101.681 122.355 98.3835 119.737L83.7813 108.144C80.8037 105.78 79.0684 102.186 79.0684 98.3844V66.23C79.0684 62.7301 81.9055 59.8929 85.4054 59.8929H121.103C125.443 59.8929 128.961 63.4114 128.961 67.7515V98.3844C128.962 102.186 127.226 105.78 124.248 108.144Z" fill="#8AC9FE"/>
<path d="M128.961 67.7501V98.3844C128.961 102.185 127.227 105.781 124.249 108.145L109.645 119.737C106.829 121.972 103.017 122.301 99.9087 120.714C100.442 120.445 100.954 120.12 101.436 119.737L116.04 108.145C119.017 105.781 120.752 102.186 120.752 98.3844V67.7501C120.752 63.4101 117.233 59.894 112.893 59.894H121.102C125.442 59.894 128.961 63.4104 128.961 67.7501Z" fill="#60B7FF"/>
<path d="M100.125 89.5946L95.1728 84.6426C93.6428 83.1126 91.1624 83.1126 89.6324 84.6426C88.1024 86.1726 88.1024 88.653 89.6324 90.183L95.4719 96.0225C98.6602 99.2108 103.829 99.2108 107.018 96.0225L118.397 84.6426C119.927 83.1126 119.927 80.6322 118.397 79.1022C116.867 77.5722 114.387 77.5722 112.857 79.1022L102.365 89.5946C101.746 90.213 100.743 90.213 100.125 89.5946Z" fill="#DFF6FD"/>
<path d="M26.8724 73.8056H22.0276C20.4355 73.8056 19.1445 72.5149 19.1445 70.9225V66.0775C19.1445 64.4853 20.4355 63.1944 22.0276 63.1944H26.8724C28.4648 63.1944 29.7555 64.4853 29.7555 66.0775V70.9222C29.7555 72.5146 28.4648 73.8056 26.8724 73.8056Z" fill="#8AC9FE"/>
<path d="M26.8724 93.4897H22.0276C20.4355 93.4897 19.1445 92.1988 19.1445 90.6066V85.7619C19.1445 84.1695 20.4355 82.8788 22.0276 82.8788H26.8724C28.4648 82.8788 29.7555 84.1695 29.7555 85.7619V90.6066C29.7555 92.1988 28.4648 93.4897 26.8724 93.4897Z" fill="#8AC9FE"/>
<path d="M26.8724 113.174H22.0276C20.4355 113.174 19.1445 111.883 19.1445 110.291V105.446C19.1445 103.854 20.4355 102.563 22.0276 102.563H26.8724C28.4648 102.563 29.7555 103.854 29.7555 105.446V110.291C29.7555 111.883 28.4648 113.174 26.8724 113.174Z" fill="#8AC9FE"/>
<path d="M40.4555 46.3628C39.3219 46.3628 38.4033 45.444 38.4033 44.3106V29.0722C38.4033 27.9388 39.3221 27.02 40.4555 27.02C41.5892 27.02 42.5078 27.9388 42.5078 29.0722V44.3106C42.5078 45.444 41.589 46.3628 40.4555 46.3628Z" fill="#678D98"/>
<path d="M49.6797 46.3628C48.546 46.3628 47.6274 45.444 47.6274 44.3106V29.0722C47.6274 27.9388 48.5462 27.02 49.6797 27.02C50.8131 27.02 51.7319 27.9388 51.7319 29.0722V44.3106C51.7321 45.444 50.8134 46.3628 49.6797 46.3628Z" fill="#678D98"/>
<path d="M58.9038 46.3628C57.7701 46.3628 56.8516 45.444 56.8516 44.3106V29.0722C56.8516 27.9388 57.7704 27.02 58.9038 27.02C60.0375 27.02 60.956 27.9388 60.956 29.0722V44.3106C60.956 45.444 60.0372 46.3628 58.9038 46.3628Z" fill="#678D98"/>
<path d="M68.1279 46.3628C66.9942 46.3628 66.0757 45.444 66.0757 44.3106V29.0722C66.0757 27.9388 66.9945 27.02 68.1279 27.02C69.2616 27.02 70.1801 27.9388 70.1801 29.0722V44.3106C70.1801 45.444 69.2616 46.3628 68.1279 46.3628Z" fill="#678D98"/>
<path d="M72.8532 52.6433H35.7305C34.6436 52.6433 33.7622 51.7619 33.7622 50.675V46.2789C33.7622 45.1919 34.6436 44.3106 35.7305 44.3106H72.8532C73.9401 44.3106 74.8215 45.1919 74.8215 46.2789V50.675C74.8215 51.7622 73.9404 52.6433 72.8532 52.6433Z" fill="#C68D7A"/>
<path d="M72.5071 29.0725H36.0766C34.7984 29.0725 33.7622 28.0363 33.7622 26.7581C33.7622 24.6525 34.8685 22.702 36.6756 21.6212L51.6311 12.6768C53.2697 11.6969 55.3142 11.6969 56.9529 12.6768L71.9083 21.6212C73.7154 22.702 74.8217 24.6525 74.8217 26.7581C74.8215 28.0363 73.7853 29.0725 72.5071 29.0725Z" fill="#C68D7A"/>
</g>
<defs>
<clipPath id="clip0_6064_276">
<rect width="136" height="136" fill="white" transform="translate(0 0.5)"/>
</clipPath>
</defs>
</svg>
