<svg width="80" height="81" viewBox="0 0 80 81" fill="none" xmlns="http://www.w3.org/2000/svg">
<path d="M0 27.1667H26.6667V0.5H0V27.1667ZM4.44444 4.94444H22.2222V22.7222H4.44444V4.94444ZM8.88889 9.38889H17.7778V18.2778H8.88889V9.38889ZM53.3333 27.1667H80V0.5H53.3333V27.1667ZM57.7778 4.94444H75.5556V22.7222H57.7778V4.94444ZM62.2222 9.38889H71.1111V18.2778H62.2222V9.38889ZM0 80.5H26.6667V53.8333H0V80.5ZM4.44444 58.2778H22.2222V76.0556H4.44444V58.2778ZM8.88889 62.7222H17.7778V71.6111H8.88889V62.7222ZM75.5556 71.6111H80V80.5H71.1111V67.1667H75.5556V71.6111ZM75.5556 58.2778H80V62.7222H75.5556V58.2778ZM75.5556 53.8333V58.2778H71.1111V53.8333H75.5556ZM31.1111 62.7222H35.5556V80.5H31.1111V62.7222ZM13.3333 31.6111V40.5H4.44444V36.0556H0V31.6111H13.3333ZM31.1111 18.2778H35.5556V22.7222H31.1111V18.2778ZM44.4444 4.94444V13.8333H40V0.5H48.8889V4.94444H44.4444ZM31.1111 4.94444H35.5556V9.38889H31.1111V4.94444ZM75.5556 40.5H80V49.3889H71.1111V44.9444H75.5556V40.5ZM71.1111 31.6111V36.0556H62.2222V44.9444H53.3333V40.5H57.7778V31.6111H71.1111ZM40 49.3889H35.5556V44.9444H31.1111V40.5H40V49.3889ZM66.6667 58.2778H71.1111V62.7222H66.6667V58.2778ZM75.5556 36.0556V40.5H71.1111V36.0556H75.5556ZM35.5556 49.3889V53.8333H31.1111V49.3889H35.5556ZM62.2222 71.6111H66.6667V80.5H57.7778V71.6111H62.2222ZM48.8889 71.6111H53.3333V76.0556H48.8889V80.5H40V76.0556H44.4444V71.6111H48.8889ZM48.8889 67.1667V62.7222H57.7778V67.1667H48.8889ZM48.8889 44.9444H53.3333V58.2778H48.8889V62.7222H44.4444V67.1667H40V58.2778H35.5556V53.8333H48.8889V49.3889H44.4444V44.9444H48.8889ZM8.88889 44.9444V49.3889H4.44444V44.9444H8.88889ZM62.2222 62.7222H57.7778V58.2778H62.2222V62.7222ZM66.6667 53.8333H57.7778V49.3889H66.6667V53.8333ZM22.2222 31.6111H26.6667V36.0556H22.2222V40.5H26.6667V49.3889H22.2222V44.9444H17.7778V49.3889H13.3333V40.5H17.7778V31.6111H22.2222ZM35.5556 31.6111V22.7222H48.8889V36.0556H40V31.6111H44.4444V27.1667H40V31.6111H35.5556ZM35.5556 13.8333H40V18.2778H35.5556V13.8333ZM31.1111 31.6111H35.5556V36.0556H31.1111V31.6111ZM44.4444 18.2778V13.8333H48.8889V18.2778H44.4444Z" fill="#040404"/>
</svg>
