<svg width="166" height="166" viewBox="0 0 166 166" fill="none" xmlns="http://www.w3.org/2000/svg">
<path d="M156.725 97.1392L156.677 97.163C151.021 101.5 148.625 108.881 150.638 115.711L150.662 115.759C153.873 126.615 145.917 137.566 134.606 137.854H134.558C127.417 138.046 121.138 142.599 118.766 149.333V149.357C114.979 160.045 102.087 164.238 92.7645 157.792C86.976 153.839 79.3238 153.633 73.2336 157.792H73.2098C63.8879 164.214 50.995 160.044 47.2326 149.333C44.8388 142.582 38.5694 138.045 31.4403 137.854H31.3922C20.0814 137.566 12.125 126.615 15.3363 115.759L15.3602 115.711C17.3727 108.881 14.9764 101.5 9.32124 97.1627L9.27323 97.1389C0.286528 90.2369 0.286528 76.7214 9.27323 69.8198L9.32124 69.7959C14.9764 65.4586 17.3727 58.0774 15.3363 51.2476V51.1996C12.1008 40.3441 20.081 29.3922 31.3922 29.1047H31.4403C38.5575 28.913 44.8601 24.3597 47.2326 17.626V17.6021C50.9947 6.91417 63.8879 2.72053 73.2098 9.16713H73.2336C79.1046 13.217 86.869 13.217 92.7645 9.16713C102.18 2.66478 115.001 6.9783 118.766 17.6021V17.626C121.138 24.3358 127.416 28.9133 134.558 29.1047H134.606C145.917 29.3922 153.873 40.3441 150.662 51.1996L150.638 51.2476C148.625 58.0774 151.021 65.4586 156.677 69.7959L156.725 69.8198C165.712 76.7214 165.712 90.2372 156.725 97.1392Z" fill="#3EB655"/>
<path d="M82.9996 128.113C107.653 128.113 127.639 108.127 127.639 83.4739C127.639 58.8203 107.653 38.8346 82.9996 38.8346C58.346 38.8346 38.3604 58.8203 38.3604 83.4739C38.3604 108.127 58.346 128.113 82.9996 128.113Z" fill="#8BD399"/>
<path opacity="0.1" d="M117.274 54.8995C109.553 48.5477 99.6743 44.7298 88.9055 44.7298C64.2522 44.7298 44.2556 64.7264 44.2556 89.3797C44.2556 100.149 48.0735 110.027 54.425 117.748C44.6149 109.565 38.3662 97.2552 38.3662 83.4732C38.3662 58.8196 58.3457 38.8404 82.999 38.8404C96.781 38.8404 109.091 45.0891 117.274 54.8995Z" fill="black"/>
<path d="M72.3795 100.949L62.5082 90.4471C59.923 87.6962 60.0564 83.3711 62.8063 80.7858C65.5562 78.1974 69.8833 78.3363 72.4662 81.0852L77.1784 86.0965L97.2082 63.2034C99.6909 60.3623 104.009 60.0742 106.853 62.5604C109.694 65.0467 109.981 69.3638 107.496 72.2049L82.5022 100.769C79.8397 103.809 75.1407 103.888 72.3795 100.949Z" fill="white"/>
</svg>
