<svg width="176" height="176" viewBox="0 0 176 176" fill="none" xmlns="http://www.w3.org/2000/svg">
<g clip-path="url(#clip0_6002_97)">
<path d="M140.285 35.9159C140.285 22.503 140.285 11.691 140.285 10.9861C140.285 8.4867 138.274 6.4426 135.815 6.4426H18.6823C16.223 6.4426 14.2109 8.4867 14.2109 10.9861V35.9159H140.285Z" fill="#F4B537"/>
<path d="M29.246 6.4426H18.6823C16.223 6.4426 14.2109 8.4867 14.2109 10.9861V35.9159H24.7759C24.7759 22.503 24.7759 11.691 24.7759 10.9861C24.7759 8.4867 26.7867 6.4426 29.246 6.4426Z" fill="#EAA01C"/>
<path d="M114.974 35.9159L140.285 10.9861C140.285 8.4867 138.274 6.4426 135.815 6.4426H18.6823C16.223 6.4426 14.2109 8.4867 14.2109 10.9861L39.5213 35.9159H114.974Z" fill="#FECA57"/>
<path d="M14.2109 10.9861L24.7759 21.3922C24.7759 15.4014 24.7759 11.4067 24.7759 10.9861C24.7759 8.4867 26.7867 6.4426 29.246 6.4426H18.6823C16.223 6.4426 14.2109 8.4867 14.2109 10.9861Z" fill="#F4B537"/>
<path d="M112.214 139.018C112.214 121.541 126.381 107.375 143.857 107.375C147.403 107.375 150.813 107.959 153.996 109.034C153.996 81.5351 153.996 42.378 153.996 40.8867C153.996 37.8933 151.546 35.4446 148.553 35.4446H5.94338C2.94865 35.4446 0.5 37.8933 0.5 40.8867V135.615C0.5 138.609 2.94865 141.057 5.94338 141.057H112.281C112.238 140.383 112.214 139.703 112.214 139.018Z" fill="#FECA57"/>
<path d="M11.0637 135.615C11.0637 134.628 11.0637 43.1818 11.0637 40.8867C11.0637 37.8933 13.5136 35.4446 16.507 35.4446H5.94338C2.94865 35.4446 0.5 37.8933 0.5 40.8867V135.615C0.5 138.609 2.94865 141.057 5.94338 141.057H16.507C13.5136 141.057 11.0637 138.609 11.0637 135.615Z" fill="#F4B537"/>
<path d="M112.214 139.018C112.214 126.997 118.917 116.541 128.79 111.185L105.127 88.2509L93.5675 99.4527C84.4739 108.269 70.0223 108.269 60.9273 99.4527L49.3689 88.2509L0.5 135.615C0.5 138.609 2.94865 141.057 5.94338 141.057H112.281C112.238 140.383 112.214 139.703 112.214 139.018Z" fill="#F4B537"/>
<path d="M56.7269 95.3819L49.3689 88.2509L0.5 135.615C0.5 138.609 2.94865 141.057 5.94338 141.057H9.59901L56.7269 95.3819Z" fill="#EAA01C"/>
<path d="M148.553 35.4446H5.94338C2.94865 35.4446 0.5 37.8933 0.5 40.8867L60.9273 100.158C70.0223 108.972 84.4739 108.972 93.5675 100.158L153.996 40.8867C153.996 37.8933 151.546 35.4446 148.553 35.4446Z" fill="#FCD486"/>
<path d="M0.5 40.8867L11.0637 51.2487C11.0637 45.2512 11.0637 41.3393 11.0637 40.8867C11.0637 37.8933 13.5136 35.4446 16.507 35.4446H5.94338C2.94865 35.4446 0.5 37.8933 0.5 40.8867Z" fill="#FECA57"/>
<path d="M175.5 138.829C175.5 156.409 161.249 170.66 143.667 170.66C126.088 170.66 111.835 156.409 111.835 138.829C111.835 121.248 126.088 106.996 143.667 106.996C161.249 106.996 175.5 121.248 175.5 138.829Z" fill="#1DD1A1"/>
<path d="M122.4 138.829C122.4 123.047 133.884 109.951 148.949 107.434C147.232 107.147 145.467 106.996 143.667 106.996C126.088 106.996 111.835 121.248 111.835 138.827C111.835 156.409 126.088 170.66 143.667 170.66C145.467 170.66 147.232 170.509 148.949 170.222C133.884 167.705 122.4 154.609 122.4 138.829Z" fill="#15BA8B"/>
<path d="M156.043 129.279L140.732 144.59L132.977 136.835C131.945 135.805 130.273 135.805 129.241 136.835C128.211 137.866 128.211 139.539 129.241 140.57L138.864 150.192C139.379 150.708 140.056 150.967 140.732 150.967C141.407 150.967 142.083 150.708 142.599 150.192L159.779 133.013C160.809 131.982 160.809 130.309 159.779 129.279C158.747 128.248 157.075 128.248 156.043 129.279Z" fill="#E4EAF8"/>
</g>
<defs>
<clipPath id="clip0_6002_97">
<rect width="175" height="175" fill="white" transform="translate(0.5 0.973846)"/>
</clipPath>
</defs>
</svg>
